# xmcd
#
# Track frame offsets:
#	150
#	22418
#	42695
#	63683
#	88440
#	113125
#	133665
#	157438
#	184090
#	203063
#
# Disc length: 3061 seconds
#
# Revision: 1
# Processed by: cddbd v1.5.2PL0 Copyright (c) Steve Scherf et al.
# Submitted via: EZCDAudioConverter 8.0.2.1
#
DISCID=a30bf30a
DTITLE=Various Artist - Mười Năm Yêu Em
DYEAR=1990
DGENRE=Traditional Country
TTITLE0=Vũ Khanh - Mười Năm Yêu Em
TTITLE1=Lệ Hằng - Ngày xưa Hoàng Thị
TTITLE2=Vũ Khanh - Ngậm ngùi
TTITLE3=Ngọc Lan - Nghe Nhung Tan Phai
TTITLE4=Vũ Khanh - Tháng giêng và anh
TTITLE5=Ngọc Lan - Tình đầu
TTITLE6=Lệ Hằng - Một đời yêu anh
TTITLE7=Vũ Khanh - Đưa em tìm động hoa vàng
TTITLE8=Ngọc Lan - Kỷ vật cho em
TTITLE9=Lệ Hằng - Bản tình cuối
EXTD=
EXTT0=
EXTT1=
EXTT2=
EXTT3=
EXTT4=
EXTT5=
EXTT6=
EXTT7=
EXTT8=
EXTT9=
PLAYORDER=
